<svg xmlns="http://www.w3.org/2000/svg" viewBox="0 0 460.9 265.43"><defs><style>.cls-1{fill:#073b65;}.cls-2{fill:#023a69;}.cls-3{fill:#1c4260;}.cls-4{fill:#2e9dcb;}</style></defs><g id="Layer_2" data-name="Layer 2"><g id="Layer_1-2" data-name="Layer 1"><path class="cls-1" d="M233.55,181.57c.88,9.34-2.29,13.67-10.87,15.06-11.26,1.83-21.54-.12-28.5-9.9-7.28-10.23-6.73-21.39-1.11-32.15,6.37-12.19,23.56-16,34.59-8,6.24,4.51,8.66,10.75,7.93,18.28a9.14,9.14,0,0,1-7.28,8.51,91,91,0,0,1-13.75,2.11c-3.61.33-7.27.07-10.93.07C204.46,186.56,217.69,189.17,233.55,181.57Zm-30.45-16c4.93,0,9.91.4,14.78-.19,2-.23,5.42-2.95,5.22-3.92-.53-2.54-2.16-5.83-4.3-6.89C210.84,150.62,203,156.29,203.1,165.57Z"/><path class="cls-2" d="M119.42,168.65l3.81,4,1.85-2c-3.54-2.38-1.18-6.14-2.08-9.16a74.26,74.26,0,0,1-1.58-9c6.21,11.81,6.64,24.34,4.16,37.35q-3.15-10.09-6.29-20.18Z"/><path class="cls-1" d="M403.58,155.29l13.82,3.82c1.36-9.7-3.32-15.35-13.64-15.8-7.47-.32-13.92,2.25-19.89,6.42-8.92,10.07-11.74,21.15-5.33,33.61.88,1.7,2.41,3,3.63,4.56l5.76,5.49,0,0c4.61,1.1,9.19,3,13.84,3.14,11.81.45,16.36-4.75,15.56-16.66-9.73,6.41-17.35,6.34-25.58-.25h0c-3.36-6.35-4.12-12.72-.09-19.12Zm-17.47,10.13a13.86,13.86,0,0,0-.27,1.61,13.86,13.86,0,0,1,.27-1.61,7.39,7.39,0,0,1,5.48-5.82c.52-2.82,3.15-4.75,6.25-5.21a10,10,0,0,1,1.9-.09,10,10,0,0,0-1.9.09c-3.1.46-5.73,2.39-6.25,5.21A7.39,7.39,0,0,0,386.11,165.42Z"/><path class="cls-1" d="M443.66,155.62l13-.91Z"/><path class="cls-1" d="M158.47,79.38l-13.81,7.13-1.35.36-4.88,1.9A108.93,108.93,0,0,1,91.88,92.6c-1.46,0-2.94,0-4.41,0,1.47,0,2.94,0,4.41,0-6-1.28-9.87-1.46-20.1-4.91-6.78-4-12-5.74-18.2-8.64-.24.5-.47,1-.7,1.49L70.29,90.73l9,4.1,2.07.85,8,3.1-.41-.41c-.42-.41-.83-.83-1.25-1.23.42.4.83.82,1.25,1.23l.41.41.17.19.23-.09,5.6,1.7c21.8,6.18,41.32,2.67,57.85-13.58l6.12-6.84Zm-71,13.22c-.73,0-1.47,0-2.21,0C86,92.61,86.71,92.6,87.44,92.6Z"/><path class="cls-1" d="M450.68,143.65h0Z"/><path class="cls-1" d="M448.6,184.65l-2-.79-.18-.1-.88-.67-.31-.3c-.23-.29-.45-.58-.68-.86l-.11-.2-.84-2.08-.25-1.83-.09-4.26c0-.61,0-1.22,0-1.83q.19-8.05.4-16.1h0l13-.91,2.26-2,.23-.14.52-1.05h0c.46-2.38,1-4.76,1.24-7.16a22.49,22.49,0,0,0-3.22-.75h-10l-2,0c-.74-1.44-1.9-2.82-2.13-4.34a49.63,49.63,0,0,1-.09-7.34c-4.75-.16-8.53-.27-9.75,4.66-.33.7-.66,1.39-1,2.09l-.78,1-.18.07c-.57,1.46-1.64,2.92-1.65,4.39-.1,12.14-.43,24.3.26,36.4.22,3.84,2.42,7.88,5.11,11.25,0,0,0,0,0,0h0l5.21,3.31c2.41.5,4.8,1.35,7.23,1.46,10.6.5,13.64-2.76,12.48-12Zm-5.87-29h0a1.27,1.27,0,0,1,.46-.1A1.27,1.27,0,0,0,442.73,155.66Z"/><path class="cls-1" d="M448.6,184.65l-2-.79Z"/><path class="cls-1" d="M446.43,183.76l-.88-.67Z"/><path class="cls-1" d="M445.24,182.79c-.23-.29-.45-.58-.68-.86C444.79,182.21,445,182.5,445.24,182.79Z"/><path class="cls-1" d="M432.71,138.74l-.78,1Z"/><path class="cls-3" d="M119.23,162.73c-.64-.66-1.29-1.32-1.93-2C117.94,161.41,118.59,162.07,119.23,162.73Z"/><path class="cls-4" d="M215.85,41.16c-.83-9.08-2.31-18.22-8.47-25.67l-.58-1c-2.27-2.58-4.17-5.66-6.87-7.66-12.2-9-25.08-8.42-38.17-2.11a1.69,1.69,0,0,0-.43.31c-.47.49-.94,1-1.42,1.46h0L157.34,8.7a5.47,5.47,0,0,1-3.14,3.69,5.47,5.47,0,0,0,3.14-3.69l-6.26,4L127.19,33.41h0c-1.34,1.07-4.49,2.44-5.82,3.5h0l-5.45,3.47-14.27,7c8.17,2.31,15.12-.39,21.73-4.56l0,0,4.12-3.08,13.75-7.1c8.36-5.68,16.36-12,25.18-16.87,10.83-6,22.33-3.48,28,5.34,2.64,4.1,5.29,8.9,5.73,13.58a376.44,376.44,0,0,1,1.58,38.73c-.1,9.77-1.6,19.53-2.47,29.3q-1.5,8.52-3,17l1.83.48L203,107.89q2.19-6,4.36-12a11,11,0,0,0,1.27-2.12C214,76.65,217.51,59.19,215.85,41.16Z"/><path class="cls-1" d="M333.47,175.9c6-.32,11.9-.31,17.76-1,15.26-1.87,19.61-12.59,10.31-25-.5-.66-1-1.36-1.42-2a.34.34,0,0,1-.43-.36c-4-1.6-7.79-4.13-11.88-4.64-15.47-1.93-27.26,8.66-28.16,24.62-1,17.15,9.26,29.32,25.1,29.48A39.48,39.48,0,0,0,357,195.33c6.18-2,8.13-6.75,6.38-13.41C344.93,188.52,336.5,186.9,333.47,175.9Zm18.54-20h0c3.14,6.6,1.82,9.12-5.43,9.77-4.28.38-8.6.32-12.9.46l-.82-.56c1.76-11.2,8.7-14.88,18.82-10Q351.68,155.93,352,155.9Zm-17.81,0a11.54,11.54,0,0,0-1.28,1.46A11.54,11.54,0,0,1,334.2,155.87Zm-2.18,3a6.33,6.33,0,0,0-.48,2.64A6.33,6.33,0,0,1,332,158.92Zm.09,5.12a7.42,7.42,0,0,1-.55-2.28A7.42,7.42,0,0,0,332.11,164Z"/><path class="cls-1" d="M318.17,137.57c1.79-7.82-1.52-12.18-9.37-12.34-9.71-.2-16.68,4.86-19.21,13.94,0,15.15,0,30.3.2,45.45-.24-15.15-.17-30.3-.2-45.45a7.65,7.65,0,0,0-.79,2.28c-.09,15.75-.32,31.52.07,47.26.06,2.29,2.74,5.26,5,6.51,2.05,1.13,5.16.35,7.79.4q0-17,0-34c1.75-.17,3.5-.45,5.25-.49,7.19-.18,10.27-4,9-11.24l-.27,0H302.3C300,138.7,303.82,135.79,318.17,137.57Z"/><path class="cls-1" d="M123,161.52a74.1,74.1,0,0,1-1.58-9l0,0c-5.15-12.85-13.75-22.48-26.48-28.24L91.1,128.1l8.54,8L87.26,150.71l-.24.12,0,.27c-5.06,7.62-6.7,16.23-6.59,25.12.13,9.95,1.14,19.9,1.3,29.86.09,5.93-2.88,7.58-8,4.42a37.86,37.86,0,0,1-9.71-8.41c-5.9-7.56-11.22-15.58-16.77-23.41-3.6-7.84-7.31-15.63-10.79-23.53-9.28-21.08-16-43-21.25-65.4l-.13-1-.93-5.81c-.52-4.61-1.25-9.21-1.52-13.84-1-17.23-1.39-34.36,11.76-48.14l3-2,6.77-2.22,5,0c9.86,4,19.83,7.75,29.57,12,8.52,3.72,16.81,7.94,26.41,8l12.82-1.31c0-.62-.09-1.25-.13-1.87H95.27C86.05,28.78,76.84,24,67.61,19.34c-5.75-2.91-11.54-5.73-17.31-8.59l1,2,1.39.71-1.39-.71-1-2C42.54,5.81,34.35,7.59,26.18,9.21l-3.06,1.31v0L11,20.42C2.41,30.13.46,42,.07,54.28c-.82,25.9,5.85,50.38,14.62,74.43l.54,1.14a.69.69,0,0,0,.21.87C19,140,22.3,149.41,26.21,158.55c7.71,18,15.34,36.24,28.73,51a59.66,59.66,0,0,0,16.15,12.92c10.1,5.25,20.84-.47,22.34-11.7.95-7.14-.29-14.55,0-21.82.33-8.73.55-17.57,2.11-26.12,1.22-6.65,5.65-11.85,12.51-14.68l3.14,3.89a.52.52,0,0,0,.31.67,4.08,4.08,0,0,1,3.06,1.61,4.08,4.08,0,0,0-3.06-1.61l7.8,17c0-.36.09-.72.13-1.08l3.81,4,1.85-2C121.54,168.3,123.9,164.54,123,161.52ZM53.33,14.68l1,0h0l-1,0c0-.32,0-.63,0-.95h0C53.31,14.05,53.31,14.36,53.33,14.68Zm-26,2.06h0c0,.63-.05,1.27-.08,1.9C27.24,18,27.27,17.37,27.29,16.74Zm-16,7c0-1,.05-1.95.08-2.92,0,1-.06,1.94-.08,2.92-.5,1.18-1,2.35-1.57,3.53C10.25,26.07,10.79,24.9,11.29,23.72Zm104.6,134c-.08-.31-.17-.61-.25-.92C115.72,157.11,115.81,157.41,115.89,157.72Z"/><path class="cls-1" d="M82.29,120.61l-.45,1.45,9.26,6L95,124.37Z"/><path class="cls-1" d="M275.79,146.55h0l0,0h0l-1-1-1.14-.83-1.93,1-12,1,12-1,1.93-1c-12.42-5.54-25,2.67-25.65,17.07-.38,8.47-.1,17-.11,25.46,0,3.65,1.4,6.44,4.85,8h0c2.92.2,6.23,2.6,8.41-1.46,0-.4,0-.8,0-1.19v-1.8c0-.4,0-.8,0-1.2v-1.82q0-9.58,0-19.17.23-4,.46-7.92,2-2.55,4.1-5.09h13.17Zm-23.81,41c.39,1.37,1.18,2.72,1.68,4.09l-1,2,1-2C253.16,190.3,252.37,189,252,187.58Z"/><path class="cls-1" d="M167.73,126.32c-7.93-.75-16.06.69-24.11,1.14l-2.94.47c-2.23.25-4.8.13-3.9,3.68,0,.69,0,1.38,0,2.06v6h0c-.08,15.13-.19,30.25-.21,45.37,0,9.28,4.75,12.69,14.13,10V170.79c5.72,0,11.21.58,16.53-.11,11.18-1.45,18.4-10.86,18.45-23.07C185.73,135.77,179.38,127.41,167.73,126.32Zm-23,9.33Zm6,2.81c6.44-.43,13-3,18.38,2.4,3,3,3.21,10.5.47,14.08-5,6.58-11.87,4-18.85,3.4Zm20.05-8.85c1.71,1.06,3.54,2,5.19,3.1-1.65-1.12-3.48-2-5.19-3.09-.56-.4-1.13-1-1.69-1.44C169.58,128.58,170.15,129.21,170.71,129.61Zm-31.05,58.07c-.41-1-1-2-1.46-3.06.42,1,1.05,2,1.46,3.06l5.52,4.89Z"/><path class="cls-4" d="M177.8,229.74c-3.31-1.09-6.77-1.74-10.12-2.7s-7.15-2-6.79-6.59c.39-5,4.4-6.25,8.33-6,6.25.41,12.44,1.64,18.72,2.53,1.09-6.86-1.13-11.1-8.7-12.38a48.17,48.17,0,0,0-16.68,0c-8.29,1.59-14.08,9.8-13.94,17.88.13,7.24,4.94,12,14.2,14.3,3.7.92,7.55,1.75,10.89,3.48,1.8.92,3.71,3.67,3.66,5.55s-2.08,5-3.82,5.48a28.33,28.33,0,0,1-11.69.74c-3.8-.6-7.36-2.67-11.05-4.1-1.59,7.69.15,11.69,6.66,14a30.25,30.25,0,0,0,21.05-.15c7.57-2.84,11.59-9.33,11.42-17.57C189.78,236.8,186.31,232.55,177.8,229.74Z"/><path class="cls-4" d="M264.05,233.86c-.48-9.91-7.42-16.51-17.35-16-4.67.25-9.22,2.65-14.75,4.36-.2-.14-1.5-1.17-2.9-2-9-5.41-21.73-2.28-25.85,6.33h0c-5,10.19-2.93,20.83-2,31.39a.85.85,0,0,0,.12.79l2,0h0l-2,0c2.07,3.65,5.25,4.47,9.1,3.54l.59-.53a.34.34,0,0,0,.24-.45l.31-.1-.29-.18c0-.76,0-1.53,0-2.3a34.46,34.46,0,0,0,.47-3.91c.09-6.48-.1-13,.21-19.44.19-4,2.22-7.33,6.58-7.42,4.07-.09,6.84,2.3,7.41,6.62a49.53,49.53,0,0,1,.5,5.44c.08,5-.08,9.95.11,14.92.22,5.82,2.94,7.8,8.78,6.7,0-.94,0-1.88,0-2.82l-4.07-1c-.56-.79-1.54-1.57-1.79-2.36.25.79,1.23,1.57,1.79,2.36l4.07,1c0,.94,0,1.88,0,2.82.88-1.23,2.47-2.42,2.51-3.68.28-7,.11-14,.22-20.94.1-5.77,2.68-9.1,6.92-9.26,4.44-.17,7.52,3.33,7.69,9.15.18,6,0,12,.16,18,.13,5.09,2.89,7.66,7.76,7.82,2.5.09,3.66-.71,3.63-3.37C264.1,250.82,264.46,242.32,264.05,233.86Zm-62,1a7.49,7.49,0,0,0-.48,1.1,7.49,7.49,0,0,1,.48-1.1c.38-.73.84-1.46,1.17-2.2,0-1.31.06-2.62.1-3.93,0-.49-.07-1-.11-1.47,0,.49.07,1,.11,1.47h0c0,1.31-.07,2.62-.1,3.93C202.93,233.44,202.47,234.17,202.09,234.9Zm5.62,25.71a1.23,1.23,0,0,0,.39-.08A1.23,1.23,0,0,1,207.71,260.61Zm-.49-33.91-1.73.93,1.73-.93c.95-.85,1.82-1.88,2.77-2.73a8.61,8.61,0,0,1,1.19-.92A8.61,8.61,0,0,0,210,224c-1,.85-1.82,1.88-2.77,2.73l4.07,0Zm28.6,1.31h0c1-.25,2.15-.31,3.13-.55C238,227.7,236.8,227.76,235.82,228Z"/><path class="cls-4" d="M321.31,250.45c-1.37,0-3-2.93-3.91-4.8-.59-1.21-.12-2.94-.11-4.44,0-7.65-.91-15.48.43-22.89,1.16-6.44.67-11.26-4.79-14.87-1.89-1.24-5.05-2.89-6.33-2.13-1.75,1-3.12,4.15-3.16,6.41-.26,15.3,0,30.61-.2,45.91-.07,4.57,2.21,7.21,5.77,8.9,2.87,1.36,6.1,1.95,9.17,2.89.08-.26.93.07,1-.19,1.49,0,2.73,0,3.61-.69,2.32-1.93,6-4.72,5.73-6.65C328.06,254.75,326.54,250.55,321.31,250.45Zm-10.06-1.73h0c-.3-.3-.71-.6-1.07-.89C310.54,248.12,311,248.42,311.25,248.72Z"/><path class="cls-4" d="M283.4,215.7c4-.09,6-2.56,6.45-6.16.4-3.4-3.15-6.7-6.68-6.49-3.81.24-6.22,2.34-6.4,6.21S279.44,215.73,283.4,215.7Z"/><path class="cls-4" d="M293.92,253.74c-3.56-.88-4.94-3-4.92-6.47,0-6,.14-12-.09-18-.08-2.22-1-4.4-1.58-6.59h0l-8-3.31c-.58,2-1.62,4-1.67,6.07-.2,7.77-.21,15.56,0,23.33.06,2.35,1,4.68,1.58,7,.1.32.2.63.29.95,2.69,5.16,9.86,8.27,14.65,5.65,1.76-.95,2.69-3.84,3.37-6C297.69,255.88,295.33,254.09,293.92,253.74Zm-10.59-31.07h0l3.78.22h0l-3.78-.21h0l-2.42-1.78Z"/><path class="cls-4" d="M368.46,228.54a8.62,8.62,0,0,1-.06-1.8h0c.17-3.79-2.46-6-5.37-7.73-7.22-4.18-14.79-6.61-22.88-2.1-.56,0-1.24.89-1.72,1.49-1.44,1.77-2.6,3.82-4.25,5.36-4.14,3.86-5.37,8.71-6,14.1-.77,7.16,1.56,13.29,5.33,19a18.51,18.51,0,0,0,4.53,4.56c7.74,5.62,23.32,3.52,25.06,2.89,1-.35,2.12-3,3.18-4.59a3.72,3.72,0,0,0,.46-1.45c.25-2.5.49-5,.78-7.91-13.59,5.78-23,4.06-25.06-4.92a56.75,56.75,0,0,0,6.41,0c5.74-.67,12.06.58,16.56-4.6l2.76-9.16c.09-.88.17-1.77.26-2.66A1.49,1.49,0,0,0,368.46,228.54Zm-27.37-7.89,2.14,0-2.14,0Zm5.67,7.67a15.31,15.31,0,0,1,8.87,0c1.39.41,2.79,3.3,2.81,5.09,0,1.13-2.37,3-3.93,3.3-3.81.75-7.77.78-12.16,1.14C341.8,232.87,343.32,229.56,346.76,228.32Zm5.49-6.94a39.83,39.83,0,0,1,4.13.55A39.83,39.83,0,0,0,352.25,221.38Z"/></g></g></svg>